<?xml version="1.0" standalone="no"?>
<!DOCTYPE svg PUBLIC "-//W3C//DTD SVG 20010904//EN"
 "http://www.w3.org/TR/2001/REC-SVG-20010904/DTD/svg10.dtd">
<svg version="1.0" xmlns="http://www.w3.org/2000/svg"
 width="512.000000pt" height="512.000000pt" viewBox="0 0 512.000000 512.000000"
 preserveAspectRatio="xMidYMid meet">
<metadata>
Created by potrace 1.11, written by Peter Selinger 2001-2013
</metadata>
<g transform="translate(0.000000,512.000000) scale(0.100000,-0.100000)"
fill="#000000" stroke="none">
<path d="M160 5114 c0 -14 119 -220 186 -321 366 -553 842 -864 1534 -1003
175 -35 371 -62 710 -95 572 -56 801 -106 1017 -220 299 -158 460 -412 536
-845 19 -110 22 -162 22 -430 0 -277 -2 -317 -23 -434 -84 -462 -269 -757
-556 -886 -140 -63 -145 -63 -683 -68 l-493 -3 0 261 0 262 -27 -7 c-105 -26
-237 -46 -348 -51 -154 -7 -234 6 -358 61 -45 20 -88 39 -94 42 -10 4 -13
-127 -13 -636 l0 -641 904 0 c551 0 955 4 1033 11 389 32 694 167 951 421 311
308 500 757 574 1368 17 139 16 574 -1 710 -59 468 -195 788 -445 1048 -163
169 -349 294 -587 395 -305 130 -570 198 -1359 348 -883 167 -1190 255 -1685
479 -192 87 -330 155 -410 204 l-60 36 -162 0 c-90 0 -163 -3 -163 -6z"/>
<path d="M380 4215 c0 -15 91 -184 157 -290 226 -364 543 -742 758 -903 142
-107 319 -173 560 -207 227 -32 347 -37 1015 -41 377 -2 747 -5 824 -7 126 -2
135 -1 105 11 -96 39 -372 98 -858 182 -162 28 -349 62 -415 76 -790 167
-1379 477 -2003 1053 -79 73 -143 129 -143 126z"/>
<path d="M656 2981 c66 -113 323 -401 493 -555 261 -236 434 -345 609 -384 62
-14 124 -17 312 -16 263 1 352 10 911 93 337 51 501 73 639 87 l75 8 -65 12
c-100 19 -323 33 -698 44 -477 14 -719 40 -987 104 -396 96 -822 296 -1200
566 -110 78 -111 79 -89 41z"/>
<path d="M1110 1983 c28 -36 154 -150 248 -225 172 -137 380 -256 495 -283
163 -39 361 -6 897 150 140 40 300 85 354 99 55 14 102 29 105 32 10 11 -254
-4 -439 -25 -403 -46 -586 -49 -830 -15 -224 31 -502 122 -734 239 -59 30
-110 55 -113 55 -2 0 5 -12 17 -27z"/>
</g>
</svg>
